<svg width="64" height="64" viewBox="0 0 64 64" fill="none" xmlns="http://www.w3.org/2000/svg">
<path d="M32 5.33325C24.9276 5.33325 18.1448 8.14277 13.1439 13.1437C8.14289 18.1447 5.33337 24.9275 5.33337 31.9999C5.33337 39.0724 8.14289 45.8551 13.1439 50.8561C18.1448 55.8571 24.9276 58.6666 32 58.6666C39.0725 58.6666 45.8552 55.8571 50.8562 50.8561C55.8572 45.8551 58.6667 39.0724 58.6667 31.9999C58.6667 24.9275 55.8572 18.1447 50.8562 13.1437C45.8552 8.14277 39.0725 5.33325 32 5.33325Z" fill="#29B6F6"/>
<path d="M45.2667 20.0001L40.272 45.5014C40.272 45.5014 40.0574 46.6668 38.612 46.6668C37.844 46.6668 37.448 46.3014 37.448 46.3014L26.6294 37.3241L21.336 34.6561L14.5427 32.8494C14.5427 32.8494 13.3334 32.5001 13.3334 31.5001C13.3334 30.6668 14.5774 30.2694 14.5774 30.2694L42.9987 18.9788C42.9974 18.9774 43.8667 18.6654 44.5 18.6668C44.8894 18.6668 45.3334 18.8334 45.3334 19.3334C45.3334 19.6668 45.2667 20.0001 45.2667 20.0001Z" fill="white"/>
<path d="M30.6667 40.6733L26.0987 45.172C26.0987 45.172 25.9 45.3253 25.6347 45.332C25.5427 45.3346 25.444 45.32 25.3427 45.2746L26.628 37.3213L30.6667 40.6733Z" fill="#B0BEC5"/>
<path d="M39.8627 24.2614C39.6374 23.9681 39.2214 23.9148 38.928 24.1374L21.3334 34.6668C21.3334 34.6668 24.1414 42.5228 24.5694 43.8828C24.9987 45.2441 25.3427 45.2761 25.3427 45.2761L26.628 37.3228L39.7374 25.1948C40.0307 24.9721 40.0854 24.5548 39.8627 24.2614Z" fill="#CFD8DC"/>
</svg>
