<svg width="64" height="64" viewBox="0 0 64 64" fill="none" xmlns="http://www.w3.org/2000/svg">
<path d="M32 5.33325C24.9276 5.33325 18.1448 8.14277 13.1439 13.1437C8.14289 18.1447 5.33337 24.9275 5.33337 31.9999C5.33337 39.0724 8.14289 45.8551 13.1439 50.8561C18.1448 55.8571 24.9276 58.6666 32 58.6666C39.0725 58.6666 45.8552 55.8571 50.8562 50.8561C55.8572 45.8551 58.6667 39.0724 58.6667 31.9999C58.6667 24.9275 55.8572 18.1447 50.8562 13.1437C45.8552 8.14277 39.0725 5.33325 32 5.33325Z" fill="#03A9F4"/>
<path d="M48 22.8267C46.824 23.348 45.3347 23.8373 44 24C45.3573 23.1947 47.5107 21.5173 48 20C46.732 20.7453 44.4387 21.5413 42.9427 21.8293C41.748 20.5627 40.044 20 38.156 20C34.5293 20 32 23.0733 32 26.6667V29.3333C26.6667 29.3333 21.4667 25.2707 18.2307 21.3333C17.6613 22.2947 17.3413 23.42 17.3413 24.6093C17.3413 27.0347 19.5693 29.496 21.3333 30.6667C20.2573 30.6333 18.22 29.812 17.3333 29.3333C17.3333 29.3547 17.3333 29.3813 17.3333 29.4093C17.3333 32.5653 19.548 34.708 22.5493 35.3053C22.0013 35.456 21.3333 36 18.7627 36C19.5973 38.58 23.7933 39.944 26.6667 40C24.4187 41.7427 20.4107 42.6667 17.3333 42.6667C16.8013 42.6667 16.5133 42.696 16 42.636C18.904 44.476 22.96 45.3333 26.6667 45.3333C38.7427 45.3333 45.3333 36.1093 45.3333 27.5067C45.3333 27.224 45.324 26.2773 45.3093 26C46.6 25.0907 47.1227 24.1387 48 22.8267Z" fill="white"/>
</svg>
