<svg width="51" height="418" viewBox="0 0 51 418" fill="none" xmlns="http://www.w3.org/2000/svg">
<path d="M14 12.256L36.4 15.04L36.4 19.392L14 16.608L14 12.256ZM18.768 0.543999L22.896 0.543999L22.896 21.728L18.768 21.728L18.768 0.543999ZM14 3.968L36.4 6.752L36.4 11.104L14 8.32L14 3.968ZM27.504 1.6L31.632 1.6L31.632 22.816L27.504 22.816L27.504 1.6ZM26.576 40.8155L26.576 51.1515L21.68 51.1515L21.68 40.8155L26.576 40.8155ZM14 41.2635L14 34.9275L36.4 34.9275L36.4 52.4955L31.504 52.4955L31.504 41.2635L14 41.2635ZM14 54.8582L31.344 54.8582L31.344 60.6502L26.288 60.6502L27.728 59.7862C29.0293 60.2982 30 61.1302 30.64 62.2822C31.3013 63.4342 31.632 64.8316 31.632 66.4742L26.16 66.4742C26.2027 66.1969 26.224 65.9516 26.224 65.7382C26.2453 65.5462 26.256 65.3329 26.256 65.0982C26.256 63.8609 25.9147 62.8582 25.232 62.0902C24.5707 61.3222 23.4827 60.9382 21.968 60.9382L14 60.9382L14 54.8582ZM13.712 77.915C13.712 75.867 14.096 74.075 14.864 72.539C15.6533 71.0243 16.72 69.8403 18.064 68.987C19.4293 68.155 20.976 67.739 22.704 67.739C24.432 67.739 25.968 68.1443 27.312 68.955C28.6773 69.787 29.7333 70.9283 30.48 72.379C31.248 73.8297 31.632 75.4617 31.632 77.275C31.632 78.9817 31.28 80.539 30.576 81.947C29.8933 83.355 28.88 84.475 27.536 85.307C26.192 86.139 24.56 86.555 22.64 86.555C22.4267 86.555 22.1813 86.5443 21.904 86.523C21.6267 86.5017 21.3707 86.4803 21.136 86.459L21.136 72.731L24.336 72.731L24.336 83.227L23.44 80.923C24.2293 80.9443 24.912 80.795 25.488 80.475C26.064 80.1763 26.512 79.7497 26.832 79.195C27.152 78.6617 27.312 78.0323 27.312 77.307C27.312 76.5817 27.152 75.9417 26.832 75.387C26.512 74.8537 26.0533 74.4377 25.456 74.139C24.88 73.8403 24.1973 73.691 23.408 73.691L22.48 73.691C21.6267 73.691 20.8907 73.8617 20.272 74.203C19.6533 74.5657 19.1733 75.0777 18.832 75.739C18.512 76.4003 18.352 77.1897 18.352 78.107C18.352 78.9603 18.4693 79.6857 18.704 80.283C18.96 80.9017 19.344 81.5097 19.856 82.107L16.528 85.307C15.6107 84.475 14.9067 83.451 14.416 82.235C13.9467 81.019 13.712 79.579 13.712 77.915ZM13.712 98.4462C13.712 96.3982 14.096 94.6062 14.864 93.0702C15.6533 91.5556 16.72 90.3716 18.064 89.5182C19.4293 88.6862 20.976 88.2702 22.704 88.2702C24.432 88.2702 25.968 88.6756 27.312 89.4862C28.6773 90.3182 29.7333 91.4596 30.48 92.9102C31.248 94.3609 31.632 95.9929 31.632 97.8062C31.632 99.5129 31.28 101.07 30.576 102.478C29.8933 103.886 28.88 105.006 27.536 105.838C26.192 106.67 24.56 107.086 22.64 107.086C22.4267 107.086 22.1813 107.076 21.904 107.054C21.6267 107.033 21.3707 107.012 21.136 106.99L21.136 93.2622L24.336 93.2622L24.336 103.758L23.44 101.454C24.2293 101.476 24.912 101.326 25.488 101.006C26.064 100.708 26.512 100.281 26.832 99.7262C27.152 99.1929 27.312 98.5636 27.312 97.8382C27.312 97.1129 27.152 96.4729 26.832 95.9182C26.512 95.3849 26.0533 94.9689 25.456 94.6702C24.88 94.3716 24.1973 94.2222 23.408 94.2222L22.48 94.2222C21.6267 94.2222 20.8907 94.3929 20.272 94.7342C19.6533 95.0969 19.1733 95.6089 18.832 96.2702C18.512 96.9316 18.352 97.7209 18.352 98.6382C18.352 99.4916 18.4693 100.217 18.704 100.814C18.96 101.433 19.344 102.041 19.856 102.638L16.528 105.838C15.6107 105.006 14.9067 103.982 14.416 102.766C13.9467 101.55 13.712 100.11 13.712 98.4462ZM13.552 127.362C13.552 125.527 13.776 123.757 14.224 122.05C14.6933 120.365 15.2907 118.989 16.016 117.922L20.688 120.002C20.048 121.005 19.5147 122.157 19.088 123.458C18.6827 124.781 18.48 126.093 18.48 127.394C18.48 128.269 18.5547 128.973 18.704 129.506C18.8747 130.039 19.088 130.423 19.344 130.658C19.6213 130.914 19.9413 131.042 20.304 131.042C20.816 131.042 21.2213 130.807 21.52 130.338C21.8187 129.869 22.064 129.261 22.256 128.514C22.448 127.767 22.64 126.935 22.832 126.018C23.024 125.122 23.2693 124.215 23.568 123.298C23.8667 122.402 24.2507 121.581 24.72 120.834C25.2107 120.087 25.84 119.479 26.608 119.01C27.3973 118.541 28.3893 118.306 29.584 118.306C30.928 118.306 32.144 118.669 33.232 119.394C34.32 120.141 35.1947 121.25 35.856 122.722C36.5173 124.194 36.848 126.029 36.848 128.226C36.848 129.698 36.6773 131.138 36.336 132.546C36.016 133.975 35.536 135.245 34.896 136.354L30.192 134.402C30.768 133.335 31.1947 132.279 31.472 131.234C31.7707 130.189 31.92 129.175 31.92 128.194C31.92 127.319 31.824 126.615 31.632 126.082C31.4613 125.549 31.2267 125.165 30.928 124.93C30.6293 124.695 30.288 124.578 29.904 124.578C29.4133 124.578 29.0187 124.802 28.72 125.25C28.4427 125.719 28.208 126.327 28.016 127.074C27.8453 127.842 27.664 128.674 27.472 129.57C27.28 130.487 27.0347 131.394 26.736 132.29C26.4587 133.207 26.0747 134.039 25.584 134.786C25.1147 135.533 24.4853 136.13 23.696 136.578C22.928 137.047 21.9573 137.282 20.784 137.282C19.4827 137.282 18.2773 136.909 17.168 136.162C16.08 135.437 15.2053 134.338 14.544 132.866C13.8827 131.415 13.552 129.581 13.552 127.362ZM13.712 147.665C13.712 145.446 14.256 143.718 15.344 142.481C16.4533 141.243 18.1173 140.625 20.336 140.625L35.216 140.625L35.216 146.705L20.4 146.705C19.7813 146.705 19.2907 146.875 18.928 147.217C18.5867 147.558 18.416 147.995 18.416 148.529C18.416 149.254 18.5973 149.873 18.96 150.385L14.704 151.889C14.3627 151.377 14.1173 150.747 13.968 150.001C13.7973 149.254 13.712 148.475 13.712 147.665ZM26.16 138.097L30.704 138.097L30.704 150.673L26.16 150.673L26.16 138.097ZM13.712 161.529C13.712 160.121 13.9893 158.852 14.544 157.721C15.0987 156.612 15.9627 155.737 17.136 155.097C18.3307 154.479 19.8347 154.169 21.648 154.169L31.344 154.169L31.344 160.249L22.64 160.249C21.296 160.249 20.336 160.495 19.76 160.985C19.184 161.497 18.896 162.212 18.896 163.129C18.896 163.727 19.0347 164.271 19.312 164.761C19.5893 165.252 20.0267 165.647 20.624 165.945C21.2427 166.244 22.032 166.393 22.992 166.393L31.344 166.393L31.344 172.473L14 172.473L14 166.681L18.896 166.681L17.52 167.801C16.24 167.204 15.28 166.34 14.64 165.209C14.0213 164.079 13.712 162.852 13.712 161.529ZM13.712 183.941C13.712 182.363 14.0747 180.923 14.8 179.621C15.5467 178.341 16.5813 177.317 17.904 176.549C19.248 175.781 20.848 175.397 22.704 175.397C24.5387 175.397 26.1173 175.781 27.44 176.549C28.784 177.317 29.8187 178.341 30.544 179.621C31.2693 180.923 31.632 182.363 31.632 183.941C31.632 185.435 31.312 186.693 30.672 187.717C30.032 188.763 29.0507 189.552 27.728 190.085C26.4053 190.619 24.7307 190.885 22.704 190.885C20.6347 190.885 18.9387 190.629 17.616 190.117C16.2933 189.605 15.312 188.837 14.672 187.813C14.032 186.789 13.712 185.499 13.712 183.941ZM18.544 185.221C18.544 185.904 18.704 186.512 19.024 187.045C19.344 187.6 19.8133 188.037 20.432 188.357C21.072 188.677 21.8293 188.837 22.704 188.837C23.5787 188.837 24.3147 188.677 24.912 188.357C25.5307 188.037 26 187.6 26.32 187.045C26.64 186.512 26.8 185.904 26.8 185.221C26.8 184.517 26.64 183.888 26.32 183.333C26 182.8 25.5307 182.373 24.912 182.053C24.3147 181.733 23.5787 181.573 22.704 181.573C21.8293 181.573 21.072 181.733 20.432 182.053C19.8133 182.373 19.344 182.8 19.024 183.333C18.704 183.888 18.544 184.517 18.544 185.221ZM14 189.029L16.976 189.029L22.704 189.061L28.432 188.741L37.744 188.742L37.744 194.822L14 194.821L14 189.029ZM13.712 207.821C13.712 205.773 14.096 203.981 14.864 202.445C15.6533 200.931 16.72 199.747 18.064 198.893C19.4293 198.061 20.976 197.645 22.704 197.645C24.432 197.645 25.968 198.051 27.312 198.861C28.6773 199.693 29.7333 200.835 30.48 202.285C31.248 203.736 31.632 205.368 31.632 207.181C31.632 208.888 31.28 210.445 30.576 211.853C29.8933 213.261 28.88 214.381 27.536 215.213C26.192 216.045 24.56 216.461 22.64 216.461C22.4267 216.461 22.1813 216.451 21.904 216.429C21.6267 216.408 21.3707 216.387 21.136 216.365L21.136 202.637L24.336 202.637L24.336 213.133L23.44 210.829C24.2293 210.851 24.912 210.701 25.488 210.381C26.064 210.083 26.512 209.656 26.832 209.101C27.152 208.568 27.312 207.939 27.312 207.213C27.312 206.488 27.152 205.848 26.832 205.293C26.512 204.76 26.0533 204.344 25.456 204.045C24.88 203.747 24.1973 203.597 23.408 203.597L22.48 203.597C21.6267 203.597 20.8907 203.768 20.272 204.109C19.6533 204.472 19.1733 204.984 18.832 205.645C18.512 206.307 18.352 207.096 18.352 208.013C18.352 208.867 18.4693 209.592 18.704 210.189C18.96 210.808 19.344 211.416 19.856 212.013L16.528 215.213C15.6107 214.381 14.9067 213.357 14.416 212.141C13.9467 210.925 13.712 209.485 13.712 207.821ZM31.632 230.561C31.632 231.905 31.3547 233.12 30.8 234.208C30.2667 235.297 29.4347 236.15 28.304 236.769C27.1733 237.408 25.712 237.728 23.92 237.728L14 237.728L14 231.648L22.928 231.648C24.1653 231.648 25.0613 231.392 25.616 230.88C26.192 230.39 26.48 229.696 26.48 228.8C26.48 228.16 26.3307 227.574 26.032 227.04C25.7547 226.507 25.3173 226.091 24.72 225.792C24.1227 225.494 23.344 225.344 22.384 225.344L14 225.344L14 219.264L31.344 219.264L31.344 225.056L26.416 225.056L27.856 223.936C29.1147 224.598 30.0533 225.504 30.672 226.656C31.312 227.808 31.632 229.11 31.632 230.561ZM13.712 249.29C13.712 247.071 14.256 245.343 15.344 244.106C16.4533 242.868 18.1173 242.25 20.336 242.25L35.216 242.25L35.216 248.33L20.4 248.33C19.7813 248.33 19.2907 248.5 18.928 248.842C18.5867 249.183 18.416 249.62 18.416 250.154C18.416 250.879 18.5973 251.498 18.96 252.01L14.704 253.514C14.3627 253.002 14.1173 252.372 13.968 251.626C13.7973 250.879 13.712 250.1 13.712 249.29ZM26.16 239.722L30.704 239.722L30.704 252.298L26.16 252.298L26.16 239.722ZM13.712 262.162C13.712 260.69 13.8827 259.25 14.224 257.842C14.5653 256.456 14.992 255.336 15.504 254.482L19.664 256.306C19.1733 257.117 18.7787 258.066 18.48 259.154C18.2027 260.242 18.064 261.309 18.064 262.354C18.064 263.378 18.1707 264.082 18.384 264.466C18.5973 264.872 18.8853 265.074 19.248 265.074C19.5893 265.074 19.8347 264.882 19.984 264.498C20.1547 264.136 20.2827 263.645 20.368 263.026C20.4533 262.429 20.5493 261.768 20.656 261.042C20.7627 260.317 20.9013 259.581 21.072 258.834C21.264 258.109 21.5413 257.437 21.904 256.818C22.288 256.221 22.8 255.741 23.44 255.378C24.08 255.016 24.8907 254.834 25.872 254.834C26.9813 254.834 27.9627 255.154 28.816 255.794C29.6907 256.456 30.3733 257.416 30.864 258.674C31.376 259.933 31.632 261.469 31.632 263.282C31.632 264.498 31.504 265.725 31.248 266.962C31.0133 268.221 30.6507 269.277 30.16 270.13L26.032 268.306C26.5227 267.453 26.8533 266.6 27.024 265.746C27.216 264.893 27.312 264.082 27.312 263.314C27.312 262.29 27.1947 261.565 26.96 261.138C26.7253 260.733 26.4373 260.53 26.096 260.53C25.7547 260.53 25.488 260.712 25.296 261.074C25.1253 261.437 24.9867 261.917 24.88 262.514C24.7947 263.133 24.6987 263.805 24.592 264.53C24.5067 265.256 24.368 265.981 24.176 266.706C23.984 267.453 23.696 268.125 23.312 268.722C22.9493 269.341 22.448 269.832 21.808 270.194C21.1893 270.557 20.3893 270.738 19.408 270.738C18.3413 270.738 17.3813 270.408 16.528 269.746C15.6747 269.106 14.992 268.146 14.48 266.866C13.968 265.608 13.712 264.04 13.712 262.162Z" fill="#0B65F1" fill-opacity="0.5"/>
<path d="M13.552 296.576C13.552 293.269 14.4587 290.688 16.272 288.832C18.0853 286.976 20.656 286.048 23.984 286.048L36.4 286.048L36.4 292.384L24.176 292.384C22.256 292.384 20.88 292.757 20.048 293.504C19.216 294.272 18.8 295.317 18.8 296.64C18.8 297.963 19.216 298.997 20.048 299.744C20.88 300.491 22.256 300.864 24.176 300.864L36.4 300.864L36.4 307.104L23.984 307.104C20.656 307.104 18.0853 306.176 16.272 304.32C14.4587 302.464 13.552 299.883 13.552 296.576ZM17.2 316.164L24.464 316.324L31.344 323.396L31.344 330.596L23.248 322.756L20.752 319.652L17.2 316.164ZM14 311.108L37.744 311.108L37.744 317.188L14 317.188L14 311.108ZM14 323.844L20.656 318.532L25.328 322.308L14 331.204L14 323.844ZM14 332.983L31.344 332.983L31.344 338.775L26.288 338.775L27.728 337.911C29.0293 338.423 30 339.255 30.64 340.407C31.3013 341.559 31.632 342.957 31.632 344.599L26.16 344.599C26.2027 344.322 26.224 344.077 26.224 343.863C26.2453 343.671 26.256 343.458 26.256 343.223C26.256 341.986 25.9147 340.983 25.232 340.215C24.5707 339.447 23.4827 339.063 21.968 339.063L14 339.063L14 332.983ZM14 356.669L17.232 356.669L18.032 356.253L23.984 356.253C24.944 356.253 25.68 355.954 26.192 355.357C26.7253 354.781 26.992 353.853 26.992 352.573C26.992 351.741 26.8533 350.898 26.576 350.045C26.32 349.192 25.9573 348.466 25.488 347.869L29.616 345.821C30.256 346.802 30.7467 347.976 31.088 349.341C31.4507 350.728 31.632 352.104 31.632 353.469C31.632 356.285 30.9813 358.461 29.68 359.997C28.4 361.554 26.384 362.333 23.632 362.333L14 362.333L14 356.669ZM13.712 351.549C13.712 350.162 13.9467 348.989 14.416 348.029C14.8853 347.069 15.5253 346.333 16.336 345.821C17.1467 345.33 18.0533 345.085 19.056 345.085C20.1227 345.085 21.04 345.352 21.808 345.885C22.5973 346.44 23.1947 347.282 23.6 348.413C24.0267 349.544 24.24 351.005 24.24 352.797L24.24 356.893L21.072 356.893L21.072 353.629C21.072 352.648 20.912 351.954 20.592 351.549C20.272 351.165 19.8453 350.973 19.312 350.973C18.7787 350.973 18.352 351.176 18.032 351.581C17.712 351.986 17.552 352.541 17.552 353.245C17.552 353.906 17.712 354.504 18.032 355.037C18.3733 355.592 18.8853 355.997 19.568 356.253L17.328 357.085C16.1333 356.765 15.2267 356.136 14.608 355.197C14.0107 354.28 13.712 353.064 13.712 351.549ZM14 366.171L31.344 366.171L31.344 372.251L14 372.251L14 366.171ZM33.264 369.211C33.264 368.101 33.5733 367.205 34.192 366.523C34.8107 365.84 35.5787 365.499 36.496 365.499C37.4133 365.499 38.1813 365.84 38.8 366.523C39.4187 367.205 39.728 368.101 39.728 369.211C39.728 370.32 39.4293 371.216 38.832 371.899C38.256 372.581 37.5093 372.923 36.592 372.923C35.632 372.923 34.832 372.581 34.192 371.899C33.5733 371.237 33.264 370.341 33.264 369.211ZM31.632 387.498C31.632 388.842 31.3547 390.058 30.8 391.146C30.2667 392.234 29.4347 393.087 28.304 393.706C27.1733 394.346 25.712 394.666 23.92 394.666L14 394.666L14 388.586L22.928 388.586C24.1653 388.586 25.0613 388.33 25.616 387.818C26.192 387.327 26.48 386.634 26.48 385.738C26.48 385.098 26.3307 384.511 26.032 383.978C25.7547 383.445 25.3173 383.029 24.72 382.73C24.1227 382.431 23.344 382.282 22.384 382.282L14 382.282L14 376.202L31.344 376.202L31.344 381.994L26.416 381.994L27.856 380.874C29.1147 381.535 30.0533 382.442 30.672 383.594C31.312 384.746 31.632 386.047 31.632 387.498ZM13.712 407.79C13.712 405.742 14.096 403.95 14.864 402.414C15.6533 400.899 16.72 399.715 18.064 398.862C19.4293 398.03 20.976 397.614 22.704 397.614C24.432 397.614 25.968 398.019 27.312 398.83C28.6773 399.662 29.7333 400.803 30.48 402.254C31.248 403.705 31.632 405.337 31.632 407.15C31.632 408.857 31.28 410.414 30.576 411.822C29.8933 413.23 28.88 414.35 27.536 415.182C26.192 416.014 24.56 416.43 22.64 416.43C22.4267 416.43 22.1813 416.419 21.904 416.398C21.6267 416.377 21.3707 416.355 21.136 416.334L21.136 402.606L24.336 402.606L24.336 413.102L23.44 410.798C24.2293 410.819 24.912 410.67 25.488 410.35C26.064 410.051 26.512 409.625 26.832 409.07C27.152 408.537 27.312 407.907 27.312 407.182C27.312 406.457 27.152 405.817 26.832 405.262C26.512 404.729 26.0533 404.313 25.456 404.014C24.88 403.715 24.1973 403.566 23.408 403.566L22.48 403.566C21.6267 403.566 20.8907 403.737 20.272 404.078C19.6533 404.441 19.1733 404.953 18.832 405.614C18.512 406.275 18.352 407.065 18.352 407.982C18.352 408.835 18.4693 409.561 18.704 410.158C18.96 410.777 19.344 411.385 19.856 411.982L16.528 415.182C15.6107 414.35 14.9067 413.326 14.416 412.11C13.9467 410.894 13.712 409.454 13.712 407.79Z" fill="#F2CA11"/>
</svg>
